PathFileType	4	(X/Y/Z)	/Users/itak/Documents/Research/Walk-IL/dataset/trc/00047_00004.trc
DataRate	CameraRate	NumFrames	NumMarkers	Units	OrigDataRate	OrigDataStartFrame	OrigNumFrames
100.000000	100.000000	4	53	mm	100.000000	320	512
Frame#	Time	RPSI			LPSI			L3			STRN			T10			C7			CLAV			RBAK			LBAK			LSHO			LUPA			LAEL			LAOL			LWTS			LWPS			LFRA			LIFD			LHPS			LHTS			RSHO			RUPA			RAEL			RAOL			RWTS			RWPS			RFRA			RIFD			RHTS			RHPS			RBHD			LFHD			RFHD			LBHD			LHIP			RHIP			RASI			LASI			LKNE			LTHI			LANK			LTIP			LTOE			LMT1			LMT5			LHEE			RKNE			RTHI			RANK			RTIP			RTOE			RMT1			RMT5			RHEE			
		X1	Y1	Z1	X2	Y2	Z2	X3	Y3	Z3	X4	Y4	Z4	X5	Y5	Z5	X6	Y6	Z6	X7	Y7	Z7	X8	Y8	Z8	X9	Y9	Z9	X10	Y10	Z10	X11	Y11	Z11	X12	Y12	Z12	X13	Y13	Z13	X14	Y14	Z14	X15	Y15	Z15	X16	Y16	Z16	X17	Y17	Z17	X18	Y18	Z18	X19	Y19	Z19	X20	Y20	Z20	X21	Y21	Z21	X22	Y22	Z22	X23	Y23	Z23	X24	Y24	Z24	X25	Y25	Z25	X26	Y26	Z26	X27	Y27	Z27	X28	Y28	Z28	X29	Y29	Z29	X30	Y30	Z30	X31	Y31	Z31	X32	Y32	Z32	X33	Y33	Z33	X34	Y34	Z34	X35	Y35	Z35	X36	Y36	Z36	X37	Y37	Z37	X38	Y38	Z38	X39	Y39	Z39	X40	Y40	Z40	X41	Y41	Z41	X42	Y42	Z42	X43	Y43	Z43	X44	Y44	Z44	X45	Y45	Z45	X46	Y46	Z46	X47	Y47	Z47	X48	Y48	Z48	X49	Y49	Z49	X50	Y50	Z50	X51	Y51	Z51	X52	Y52	Z52	X53	Y53	Z53	

321	3.2	-130.4477691650391	1059.996704101562	537.8739624023438	0.7937406897544861	1057.426879882812	441.6804504394531	-57.42365264892578	1117.971923828125	479.0242004394531	57.02242660522461	1313.884765625	672.9522094726562	-60.39222717285156	1262.489868164062	452.2906799316406	-22.69382476806641	1529.822143554688	488.6305847167969	42.01358795166016	1440.206420898438	632.7874755859375	-119.6670074462891	1394.768920898438	478.1390075683594	55.15584564208984	1488.397338867188	427.9473571777344	166.5332794189453	1495.34912109375	485.0936584472656	224.9081878662109	1372.98583984375	419.2100524902344	260.1699829101562	1159.90771484375	398.434326171875	155.4285736083984	1138.062622070312	396.6864929199219	286.25537109375	912.5921630859375	509.1324462890625	282.1775207519531	894.31884765625	421.7370300292969	283.5003662109375	1045.943969726562	407.2596130371094	306.8065795898438	731.5011596679688	548.6796264648438	310.6993103027344	808.9313354492188	453.3930358886719	319.5136413574219	823.1963500976562	523.1975708007812	-144.703125	1516.733276367188	635.1060180664062	-216.5085906982422	1450.295776367188	651.4686279296875	-273.8627014160156	1190.109375	617.3880004882812	-186.4806060791016	1156.267333984375	580.8788452148438	-215.0098571777344	922.9585571289062	718.6024169921875	-300.9863891601562	914.72119140625	684.1273193359375	-289.4413452148438	1114.201049804688	632.4559936523438	-203.9152374267578	736.5595703125	722.550048828125	-219.9166564941406	813.3065795898438	751.4876098632812	-289.041748046875	811.8801879882812	719.928466796875	80.92182922363281	1718.913330078125	538.6499633789062	-25.23541831970215	1713.15966796875	729.6281127929688	71.23148345947266	1718.768676757812	720.10205078125	-62.12200546264648	1708.37255859375	557.7406005859375	145.6322174072266	958.6446533203125	455.83984375	-142.63525390625	948.1693725585938	695.0756225585938	-24.4931468963623	988.6177978515625	728.694091796875	162.5458984375	1004.436157226562	589.6068115234375	156.7655181884766	515.3765258789062	528.8633422851562	162.9914093017578	652.6845092773438	485.2907409667969	87.98967742919922	37.65518951416016	415.188232421875	120.5045394897461	281.6398010253906	442.9022521972656	133.5279541015625	37.67324829101562	640.2689819335938	92.27662658691406	45.41107940673828	593.7600708007812	166.2567901611328	36.10493469238281	514.3095703125	8.22675895690918	45.22419738769531	378.5289001464844	-17.39799499511719	543.043212890625	819.0526123046875	-100.2632446289062	799.6265258789062	750.4010620117188	-113.0347137451172	115.4687423706055	561.1307373046875	-41.62533187866211	420.7016906738281	771.642333984375	5.018792629241943	48.71226501464844	750.8613891601562	10.3902416229248	67.32027435302734	683.3399047851562	-84.17002868652344	70.68968200683594	700.6553344726562	-88.09545135498047	132.0568084716797	496.8883056640625	
322	3.21	-126.0919570922852	1059.531005859375	541.7327880859375	6.063542366027832	1056.998046875	446.7660522460938	-52.55178451538086	1117.5380859375	483.55810546875	60.38449478149414	1313.427612304688	678.707275390625	-55.06853866577148	1262.07568359375	456.9612426757812	-17.61892318725586	1529.400756835938	493.7849426269531	45.77429580688477	1439.716796875	638.426513671875	-114.5583419799805	1394.386108398438	482.3271484375	60.81193542480469	1487.963256835938	433.7301940917969	171.59912109375	1494.854858398438	491.8910827636719	230.6807250976562	1372.52392578125	426.6125793457031	266.4293823242188	1159.479125976562	406.4615173339844	161.8220825195312	1137.47607421875	403.5796203613281	291.7944641113281	912.82177734375	518.6329956054688	288.8578186035156	894.0436401367188	431.3375549316406	289.9201354980469	1045.611572265625	416.0478515625	312.3128967285156	732.03271484375	559.4973754882812	317.1118774414062	808.8944702148438	463.8290405273438	325.1946716308594	823.6455688476562	533.6680908203125	-140.9788360595703	1516.290649414062	639.151611328125	-212.8544464111328	1449.817260742188	654.9010620117188	-269.8826293945312	1189.61572265625	620.2828979492188	-182.1095123291016	1155.7548828125	584.6240234375	-211.9454040527344	922.4982299804688	722.1598510742188	-297.4924011230469	914.2481079101562	686.902587890625	-285.4716796875	1113.708374023438	635.3280029296875	-200.8127746582031	736.156494140625	726.3161010742188	-217.0527038574219	812.9248046875	755.068115234375	-285.8749694824219	811.404052734375	722.849365234375	85.39579772949219	1718.556274414062	544.8053588867188	-22.02574157714844	1712.461669921875	735.03125	74.49993896484375	1718.050048828125	726.205810546875	-57.76113128662109	1708.005981445312	562.94384765625	150.5424194335938	958.1218872070312	461.9270629882812	-139.5676422119141	948.0902709960938	699.01416015625	-21.65763473510742	988.3653564453125	733.4647827148438	166.4977416992188	1003.76123046875	596.002685546875	158.5725402832031	514.6345825195312	531.335693359375	165.7399291992188	652.19189453125	489.445556640625	87.92425537109375	37.75146484375	415.28466796875	121.2431411743164	281.5511169433594	443.9764099121094	133.5286712646484	37.60589599609375	640.3012084960938	92.26093292236328	45.35592651367188	593.7383422851562	166.2696838378906	35.99979782104492	514.3091430664062	8.245477676391602	45.66649627685547	378.5905456542969	-15.15136528015137	544.7134399414062	826.9535522460938	-98.03467559814453	800.2723999023438	755.5294799804688	-96.59129333496094	106.6757659912109	581.932373046875	-36.70333480834961	420.9051818847656	782.3829345703125	17.42503356933594	49.60321426391602	776.8823852539062	24.2874813079834	65.77320861816406	708.8802490234375	-70.80510711669922	67.99651336669922	723.67724609375	-70.57022857666016	121.4733200073242	517.5802001953125	
323	3.22	-121.7850189208984	1058.930419921875	545.6023559570312	11.26871967315674	1056.47412109375	451.8797912597656	-47.771484375	1117.030517578125	488.1205749511719	63.6491813659668	1312.874267578125	684.4736938476562	-49.86577224731445	1261.593017578125	461.6865539550781	-12.6552095413208	1528.907470703125	499.0044555664062	49.43601226806641	1439.131103515625	644.0986328125	-109.5620193481445	1393.935668945312	486.6018676757812	66.32730102539062	1487.459716796875	439.5570678710938	176.5387725830078	1494.270874023438	498.7195434570312	236.2889099121094	1371.96435546875	434.0454406738281	272.4869995117188	1158.943359375	414.5413513183594	168.0260009765625	1136.798828125	410.5503845214844	297.0985717773438	912.921630859375	528.1121826171875	295.2516479492188	893.6600341796875	440.9365844726562	296.0976257324219	1045.165283203125	424.8648376464844	317.4866027832031	732.420166015625	570.2467041015625	323.2170715332031	808.731201171875	474.23486328125	330.5860290527344	823.9481201171875	544.0880126953125	-137.3278045654297	1515.776489257812	643.2958374023438	-209.2789916992188	1449.259521484375	658.4330444335938	-265.9668273925781	1189.041137695312	623.2401733398438	-177.831787109375	1155.174926757812	588.4171752929688	-208.8860931396484	921.9754028320312	725.7730712890625	-293.9984741210938	913.681884765625	689.7518310546875	-281.5718688964844	1113.128051757812	638.2550659179688	-197.6605377197266	735.6824951171875	730.1885375976562	-214.1772308349609	812.4994506835938	758.721923828125	-282.7256469726562	810.860107421875	725.845947265625	89.75048065185547	1718.117065429688	550.9926147460938	-18.94941139221191	1711.691284179688	740.4371337890625	77.65910339355469	1717.280151367188	732.3284301757812	-53.51951599121094	1707.528076171875	568.1843872070312	155.4183502197266	957.51904296875	468.0878295898438	-136.5827789306641	947.863037109375	702.9278564453125	-18.94265365600586	988.0006103515625	738.271240234375	170.3630218505859	1003.015441894531	602.4619750976562	160.3353576660156	513.9022827148438	533.9928588867188	168.4978485107422	651.6469116210938	493.810546875	87.87554168701172	37.85944747924805	415.3853759765625	121.9930953979492	281.46630859375	445.1307678222656	133.4926910400391	37.51426315307617	640.3302612304688	92.23247528076172	45.30008697509766	593.7252807617188	166.2775573730469	35.90468597412109	514.3106079101562	8.283323287963867	46.15634536743164	378.6325378417969	-13.19216442108154	546.16162109375	834.5403442382812	-96.07684326171875	800.67578125	760.5827026367188	-80.61232757568359	98.57059478759766	603.12109375	-32.00856399536133	421.0633850097656	793.0130004882812	28.88385963439941	50.69514083862305	802.7763671875	37.33530044555664	64.56733703613281	734.4593505859375	-58.29892349243164	65.61280059814453	746.6897583007812	-53.4247932434082	111.6614608764648	538.795166015625	
324	3.23	-117.5212707519531	1058.201049804688	549.4957275390625	16.40211486816406	1055.859619140625	457.0304870605469	-43.0854606628418	1116.45654296875	492.7134704589844	66.82357025146484	1312.22998046875	690.254150390625	-44.78961944580078	1261.050048828125	466.4678344726562	-7.806282520294189	1528.3515625	504.29052734375	52.99839401245117	1438.45849609375	649.8058471679688	-104.6820068359375	1393.423217773438	490.9667053222656	71.70124816894531	1486.900146484375	445.4260864257812	181.3518676757812	1493.604125976562	505.5801086425781	241.7279968261719	1371.316650390625	441.5068359375	278.3443298339844	1158.308227539062	422.6658630371094	174.0361175537109	1136.037109375	417.592041015625	302.1664733886719	912.9003295898438	537.5698852539062	301.3542785644531	893.177001953125	450.5261840820312	302.0351257324219	1044.613159179688	433.70458984375	322.3351135253906	732.6713256835938	580.9163208007812	329.0174255371094	808.45068359375	484.5992126464844	335.6791687011719	824.10888671875	554.4483032226562	-133.7488555908203	1515.194213867188	647.5446166992188	-205.7837829589844	1448.628295898438	662.0704345703125	-262.1188049316406	1188.393188476562	626.2742309570312	-173.6598815917969	1154.535888671875	592.2581176757812	-205.8159332275391	921.396728515625	729.447021484375	-290.5089721679688	913.0254516601562	692.6802978515625	-277.7435913085938	1112.4677734375	641.2446899414062	-194.4463958740234	735.1417846679688	734.160400390625	-211.2855072021484	812.03466796875	762.4392700195312	-279.5789794921875	810.251220703125	728.9216918945312	93.98782348632812	1717.599365234375	557.2169189453125	-15.99445247650146	1710.854370117188	745.8582153320312	80.71623229980469	1716.460815429688	738.4745483398438	-49.3914794921875	1706.948486328125	573.4710083007812	160.2518005371094	956.8457641601562	474.3203125	-133.6714935302734	947.49853515625	706.8363037109375	-16.3303279876709	987.5321044921875	743.1196899414062	174.1431274414062	1002.206176757812	608.9769287109375	162.0468902587891	513.1774291992188	536.81298828125	171.2421417236328	651.0505981445312	498.3497924804688	87.84276580810547	37.98500442504883	415.4928894042969	122.7615127563477	281.3907165527344	446.3587951660156	133.4241638183594	37.40206527709961	640.3534545898438	92.20054626464844	45.25102615356445	593.7252197265625	166.2831573486328	35.82329559326172	514.3156127929688	8.346022605895996	46.68447494506836	378.6576843261719	-11.45365524291992	547.3948974609375	841.820556640625	-94.34597015380859	800.838623046875	765.5519409179688	-65.22025299072266	91.18182373046875	624.6041259765625	-27.50854301452637	421.1713256835938	803.5249633789062	39.53116226196289	51.95118713378906	828.44091796875	49.60652923583984	63.69700622558594	759.9568481445312	-46.54096221923828	63.54205703735352	769.63232421875	-36.79738616943359	102.6523818969727	560.4471435546875	
